<?xml version="1.0" encoding="UTF-8" standalone="no"?>
<svg width="256px" height="256px" viewBox="0 0 256 256" version="1.1" xmlns="http://www.w3.org/2000/svg" xmlns:xlink="http://www.w3.org/1999/xlink" preserveAspectRatio="xMidYMid">
    <g>
        <path d="M251.172245,116.593517 L139.398753,4.82038 C132.966433,-1.60646008 122.525852,-1.60646008 116.085106,4.82038 L92.8753863,28.0299316 L122.317995,57.4730796 C129.16041,55.1805405 137.005593,56.7195496 142.460425,62.1744065 C147.940536,67.6629424 149.479799,75.5755415 147.111919,82.4489996 L175.487156,110.824236 C182.367378,108.45645 190.273064,109.995781 195.755985,115.484318 C203.418591,123.146922 203.418591,135.645943 195.755985,143.308547 C188.09057,150.971184 175.59153,150.971184 167.926169,143.308547 C162.323359,137.705738 160.84322,129.388991 163.454676,122.209319 L136.593556,95.3480991 L136.593556,160.494762 C138.487948,161.433997 140.265214,162.709386 141.826109,164.270239 C149.488761,171.932908 149.488761,184.431928 141.826109,192.094586 C134.163464,199.757213 121.663446,199.757213 114.000871,192.094586 C106.338196,184.431928 106.338196,171.932908 114.000871,164.270239 C115.979234,162.291874 118.291885,160.834337 120.761911,159.887706 L120.761911,94.1955625 C118.291885,93.2489311 115.979234,91.7913941 114.000871,89.8130288 C108.320691,84.1331092 106.894591,75.7156296 109.569982,68.5331797 L80.352862,39.3158517 L4.83125863,114.842444 C-1.60949009,121.28154 -1.60949009,131.72007 4.83125863,138.159233 L116.604747,249.934371 C123.039876,256.359453 133.477648,256.359453 139.921583,249.934371 L251.172245,138.683664 C257.60715,132.244562 257.60715,121.802678 251.172245,115.363575" fill="#DE4C36"></path>
    </g>
</svg>
