<?xml version="1.0" encoding="UTF-8"?>
<svg width="256px" height="256px" viewBox="0 0 256 256" version="1.1" xmlns="http://www.w3.org/2000/svg" xmlns:xlink="http://www.w3.org/1999/xlink" preserveAspectRatio="xMidYMid">
    <defs>
        <linearGradient x1="0%" y1="0%" x2="100%" y2="100%" id="restfulGradient">
            <stop stop-color="#2196F3" offset="0%"></stop>
            <stop stop-color="#00BCD4" offset="100%"></stop>
        </linearGradient>
    </defs>
    <g>
        <rect fill="url(#restfulGradient)" x="0" y="0" width="256" height="256" rx="28"></rect>
        <path d="M210,40 L46,40 C42.686,40 40,42.686 40,46 L40,210 C40,213.314 42.686,216 46,216 L210,216 C213.314,216 216,213.314 216,210 L216,46 C216,42.686 213.314,40 210,40 Z" stroke="#FFFFFF" stroke-width="12" fill="none"></path>
        <path d="M64,80 L192,80" stroke="#FFFFFF" stroke-width="12" stroke-linecap="round"></path>
        <path d="M64,128 L192,128" stroke="#FFFFFF" stroke-width="12" stroke-linecap="round"></path>
        <path d="M64,176 L192,176" stroke="#FFFFFF" stroke-width="12" stroke-linecap="round"></path>
        <circle cx="64" cy="80" r="8" fill="#FFFFFF"></circle>
        <circle cx="96" cy="128" r="8" fill="#FFFFFF"></circle>
        <circle cx="128" cy="176" r="8" fill="#FFFFFF"></circle>
    </g>
</svg>
